<svg width="24" height="21" viewBox="0 0 24 21" fill="none" xmlns="http://www.w3.org/2000/svg">
<path d="M9.17352 12.3168H8.89147L8.68728 12.5114L5.30786 15.7319L4.71325 12.8778L4.59637 12.3168H4.02327H1.4638C1.09916 12.3168 0.803557 12.0212 0.803557 11.6565V2.10119C0.803557 1.73655 1.09916 1.44095 1.4638 1.44095H14.4318C14.7964 1.44095 15.092 1.73655 15.092 2.10119V11.6565C15.092 12.0212 14.7964 12.3168 14.4318 12.3168H9.17352Z" fill="#F14343" fill-opacity="0.12" stroke="#F14343" stroke-width="1.4096"/>
<path d="M10.3393 17.1206H15.3945L18.8429 20.1884C18.9475 20.2815 19.1136 20.2266 19.1421 20.0896L19.7607 17.1206H21.8088C22.4121 17.1206 22.9011 16.6315 22.9011 16.0283V8.38194C22.9011 7.77867 22.4121 7.28961 21.8088 7.28961H18.8093" stroke="white" stroke-width="1.4096"/>
</svg>
