<svg width="11" height="6" viewBox="0 0 11 6" fill="none" xmlns="http://www.w3.org/2000/svg">
<path d="M5.49695 6C5.75929 6 5.98502 5.90323 6.18636 5.71537L10.756 1.34345C10.9146 1.19545 11 1.01328 11 0.796964C11 0.352941 10.6217 0 10.152 0C9.92013 0 9.7005 0.085389 9.52967 0.244782L5.50305 4.11575L1.47033 0.244782C1.2995 0.0910816 1.08597 0 0.848031 0C0.378258 0 0 0.352941 0 0.796964C0 1.01328 0.0854132 1.19545 0.244038 1.34915L4.81364 5.71537C5.02718 5.90892 5.24071 6 5.49695 6Z" fill="white"/>
</svg>
