<svg width="11" height="7" viewBox="0 0 11 7" fill="none" xmlns="http://www.w3.org/2000/svg">
<path d="M1.27705 1.49041C1.35946 0.913535 1.85352 0.485045 2.43624 0.485045H8.56376C9.14648 0.485045 9.64054 0.913534 9.72295 1.49041L10.3434 5.83349C10.3948 6.19316 10.1157 6.51496 9.75236 6.51496C9.57659 6.51496 9.40975 6.4375 9.29631 6.30323L7.71975 4.43717C7.56465 4.2536 7.33655 4.14771 7.09624 4.14771H5.5H3.91703C3.65813 4.14771 3.41458 4.27053 3.26067 4.47873L1.97175 6.22227C1.83566 6.40635 1.62032 6.51496 1.3914 6.51496C0.952204 6.51496 0.614832 6.12596 0.676944 5.69118L1.27705 1.49041Z" stroke="white" stroke-width="0.97009"/>
</svg>
