<svg width="16" height="11" viewBox="0 0 16 11" fill="none" xmlns="http://www.w3.org/2000/svg">
<path d="M2.5189 2.38683C2.6175 1.7039 3.20277 1.19707 3.89277 1.19707H12.9193C13.6093 1.19707 14.1946 1.7039 14.2932 2.38682L15.1842 8.55799C15.2643 9.1129 14.8339 9.60991 14.2732 9.60991C14.004 9.60991 13.7482 9.49197 13.5733 9.28719L11.3771 6.71524C11.1933 6.49994 10.9244 6.37596 10.6413 6.37596H8.40603H6.18651C5.88132 6.37596 5.59402 6.51994 5.41136 6.76442L5.87198 7.10858L5.41135 6.76442L3.58392 9.21026C3.39599 9.46178 3.10041 9.60991 2.78644 9.60991H2.62555C2.01914 9.60991 1.55361 9.07233 1.64027 8.47215L2.5189 2.38683Z" stroke="currentColor" stroke-width="1.15"/>
</svg>
