<svg width="23" height="11" viewBox="0 0 23 11" fill="none" xmlns="http://www.w3.org/2000/svg">
<path d="M8.88037 6.2168V8.00049C8.88037 8.23747 8.8571 8.4279 8.81055 8.57178C8.764 8.71143 8.67725 8.83838 8.55029 8.95264C8.42757 9.06689 8.26888 9.17692 8.07422 9.28271C7.51139 9.5874 6.96973 9.80957 6.44922 9.94922C5.92871 10.0889 5.36165 10.1587 4.74805 10.1587C4.03288 10.1587 3.38118 10.0487 2.79297 9.82861C2.20475 9.60856 1.70329 9.28906 1.28857 8.87012C0.873861 8.45117 0.554362 7.94336 0.330078 7.34668C0.110026 6.75 0 6.0835 0 5.34717C0 4.62354 0.10791 3.96126 0.32373 3.36035C0.539551 2.75944 0.856934 2.24951 1.27588 1.83057C1.69482 1.41162 2.20475 1.09212 2.80566 0.87207C3.40658 0.647786 4.08789 0.535645 4.84961 0.535645C5.47591 0.535645 6.03027 0.62028 6.5127 0.789551C6.99512 0.95459 7.38656 1.16406 7.68701 1.41797C7.98747 1.67188 8.21387 1.94059 8.36621 2.22412C8.51855 2.50765 8.59473 2.75944 8.59473 2.97949C8.59473 3.21647 8.50586 3.4196 8.32812 3.58887C8.15462 3.75391 7.94515 3.83643 7.69971 3.83643C7.56429 3.83643 7.43311 3.80469 7.30615 3.74121C7.18343 3.67773 7.07975 3.58887 6.99512 3.47461C6.76237 3.11068 6.56559 2.83561 6.40479 2.64941C6.24398 2.46322 6.02604 2.30664 5.75098 2.17969C5.48014 2.05273 5.13314 1.98926 4.70996 1.98926C4.27409 1.98926 3.88477 2.06543 3.54199 2.21777C3.19922 2.36589 2.90511 2.58382 2.65967 2.87158C2.41846 3.15511 2.23226 3.50423 2.10107 3.91895C1.97412 4.33366 1.91064 4.79281 1.91064 5.29639C1.91064 6.38818 2.16032 7.22819 2.65967 7.81641C3.16325 8.40462 3.86361 8.69873 4.76074 8.69873C5.19661 8.69873 5.60498 8.6416 5.98584 8.52734C6.37093 8.41309 6.76025 8.25016 7.15381 8.03857V6.52783H5.69385C5.34261 6.52783 5.07601 6.47494 4.89404 6.36914C4.71631 6.26335 4.62744 6.0835 4.62744 5.82959C4.62744 5.62223 4.7015 5.45085 4.84961 5.31543C5.00195 5.18001 5.20719 5.1123 5.46533 5.1123H7.60449C7.86686 5.1123 8.08903 5.13558 8.271 5.18213C8.45296 5.22868 8.59896 5.33236 8.70898 5.49316C8.82324 5.65397 8.88037 5.89518 8.88037 6.2168Z" fill="currentColor"/>
<path d="M11.2729 9.00977V1.67822C11.2729 1.29736 11.3597 1.01172 11.5332 0.821289C11.7067 0.630859 11.931 0.535645 12.206 0.535645C12.4896 0.535645 12.7181 0.630859 12.8916 0.821289C13.0693 1.00749 13.1582 1.29313 13.1582 1.67822V9.00977C13.1582 9.39486 13.0693 9.68262 12.8916 9.87305C12.7181 10.0635 12.4896 10.1587 12.206 10.1587C11.9352 10.1587 11.7109 10.0635 11.5332 9.87305C11.3597 9.67839 11.2729 9.39062 11.2729 9.00977Z" fill="currentColor"/>
<path d="M21.3525 2.14795H17.6391V4.52832H20.7431C21.0309 4.52832 21.2446 4.59391 21.3842 4.7251C21.5281 4.85205 21.6001 5.02344 21.6001 5.23926C21.6001 5.45508 21.5281 5.62646 21.3842 5.75342C21.2404 5.88037 21.0267 5.94385 20.7431 5.94385H17.6391V9.00977C17.6391 9.39909 17.5503 9.68896 17.3725 9.87939C17.199 10.0656 16.9747 10.1587 16.6997 10.1587C16.4204 10.1587 16.1919 10.0635 16.0141 9.87305C15.8406 9.68262 15.7539 9.39486 15.7539 9.00977V1.84961C15.7539 1.57878 15.7941 1.35872 15.8745 1.18945C15.9549 1.01595 16.0797 0.891113 16.249 0.814941C16.4225 0.734538 16.6425 0.694336 16.9091 0.694336H21.3525C21.653 0.694336 21.8751 0.762044 22.019 0.897461C22.1671 1.02865 22.2412 1.20215 22.2412 1.41797C22.2412 1.63802 22.1671 1.81576 22.019 1.95117C21.8751 2.08236 21.653 2.14795 21.3525 2.14795Z" fill="currentColor"/>
</svg>
