<svg width="20" height="16" viewBox="0 0 20 16" fill="none" xmlns="http://www.w3.org/2000/svg">
<rect x="0.538492" y="0.538492" width="18.923" height="14.923" rx="1.33452" stroke="#8293A4" stroke-width="1.07698"/>
<path d="M8.73475 8.88506V9.98848C8.73475 10.1351 8.72035 10.2529 8.69156 10.3419C8.66276 10.4283 8.6091 10.5068 8.53056 10.5775C8.45464 10.6482 8.35647 10.7162 8.23605 10.7817C7.88788 10.9702 7.5528 11.1076 7.2308 11.194C6.90881 11.2804 6.55802 11.3236 6.17843 11.3236C5.73601 11.3236 5.33287 11.2555 4.96899 11.1194C4.60511 10.9833 4.29489 10.7856 4.03834 10.5264C3.7818 10.2673 3.58415 9.95314 3.4454 9.58402C3.30927 9.21491 3.24121 8.8026 3.24121 8.34709C3.24121 7.89944 3.30797 7.48975 3.44148 7.11802C3.57499 6.74628 3.77132 6.43083 4.03049 6.17167C4.28966 5.9125 4.60511 5.71485 4.97684 5.57872C5.34857 5.43998 5.77005 5.37061 6.24126 5.37061C6.6287 5.37061 6.97164 5.42296 7.27007 5.52768C7.5685 5.62977 7.81065 5.75936 7.99652 5.91643C8.18239 6.0735 8.32244 6.23973 8.41668 6.41512C8.51093 6.59052 8.55805 6.74628 8.55805 6.88241C8.55805 7.02901 8.50307 7.15466 8.39312 7.25938C8.28579 7.36147 8.15621 7.41252 8.00437 7.41252C7.9206 7.41252 7.83945 7.39289 7.76092 7.35362C7.685 7.31435 7.62086 7.25938 7.5685 7.1887C7.42452 6.96356 7.30279 6.7934 7.20332 6.67822C7.10384 6.56303 6.96902 6.46617 6.79886 6.38764C6.63132 6.3091 6.41665 6.26983 6.15487 6.26983C5.88523 6.26983 5.64439 6.31696 5.43234 6.4112C5.2203 6.50282 5.03836 6.63764 4.88652 6.81565C4.73731 6.99105 4.62212 7.20702 4.54097 7.46357C4.46243 7.72012 4.42317 8.00415 4.42317 8.31568C4.42317 8.99108 4.57762 9.51072 4.88652 9.8746C5.19805 10.2385 5.6313 10.4204 6.18628 10.4204C6.45592 10.4204 6.70854 10.3851 6.94415 10.3144C7.18237 10.2437 7.42321 10.1429 7.66667 10.012V9.07747H6.76352C6.54624 9.07747 6.38131 9.04475 6.26875 8.9793C6.1588 8.91385 6.10382 8.8026 6.10382 8.64553C6.10382 8.51725 6.14963 8.41123 6.24126 8.32746C6.3355 8.24369 6.46247 8.2018 6.62215 8.2018H7.94547C8.10778 8.2018 8.24522 8.2162 8.35778 8.245C8.47035 8.27379 8.56067 8.33793 8.62873 8.43741C8.69941 8.53689 8.73475 8.6861 8.73475 8.88506Z" fill="#8293A4"/>
<path d="M10.2148 10.6128V6.07742C10.2148 5.84182 10.2685 5.66511 10.3758 5.54731C10.4832 5.42951 10.6219 5.37061 10.7921 5.37061C10.9675 5.37061 11.1088 5.42951 11.2162 5.54731C11.3261 5.66249 11.3811 5.8392 11.3811 6.07742V10.6128C11.3811 10.8511 11.3261 11.0291 11.2162 11.1469C11.1088 11.2647 10.9675 11.3236 10.7921 11.3236C10.6245 11.3236 10.4858 11.2647 10.3758 11.1469C10.2685 11.0265 10.2148 10.8484 10.2148 10.6128Z" fill="#8293A4"/>
<path d="M16.4502 6.368H14.1531V7.84054H16.0732C16.2513 7.84054 16.3835 7.88112 16.4698 7.96227C16.5589 8.0408 16.6034 8.14683 16.6034 8.28034C16.6034 8.41385 16.5589 8.51987 16.4698 8.5984C16.3808 8.67694 16.2486 8.71621 16.0732 8.71621H14.1531V10.6128C14.1531 10.8537 14.0981 11.033 13.9881 11.1508C13.8808 11.266 13.7421 11.3236 13.5719 11.3236C13.3991 11.3236 13.2578 11.2647 13.1478 11.1469C13.0405 11.0291 12.9868 10.8511 12.9868 10.6128V6.18345C12.9868 6.0159 13.0117 5.87978 13.0614 5.77506C13.1112 5.66773 13.1884 5.5905 13.2931 5.54338C13.4004 5.49364 13.5366 5.46877 13.7015 5.46877H16.4502C16.6361 5.46877 16.7735 5.51066 16.8625 5.59443C16.9541 5.67558 17 5.78292 17 5.91643C17 6.05255 16.9541 6.1625 16.8625 6.24627C16.7735 6.32743 16.6361 6.368 16.4502 6.368Z" fill="#8293A4"/>
</svg>
