<svg width="20" height="18" viewBox="0 0 20 18" fill="none" xmlns="http://www.w3.org/2000/svg">
<path d="M7.41874 10.3424H7.18863L7.02206 10.5011L4.26502 13.1286L3.77991 10.8001L3.68455 10.3424H3.217H1.12891C0.83142 10.3424 0.590259 10.1012 0.590259 9.80372V2.00818C0.590259 1.71069 0.831421 1.46953 1.12891 1.46953H11.7086C12.0061 1.46953 12.2472 1.71069 12.2472 2.00818V9.80372C12.2472 10.1012 12.0061 10.3424 11.7086 10.3424H7.41874Z" stroke="white" stroke-width="1.15"/>
<path d="M8.36997 14.2616H12.4941L15.3075 16.7645C15.3928 16.8404 15.5283 16.7956 15.5516 16.6838L16.0562 14.2616H17.7271C18.2193 14.2616 18.6183 13.8626 18.6183 13.3705V7.13237C18.6183 6.6402 18.2193 6.24121 17.7271 6.24121H15.28" stroke="#F14343" stroke-width="1.15"/>
</svg>
