<svg width="18" height="16" viewBox="0 0 18 16" fill="none" xmlns="http://www.w3.org/2000/svg">
  <path
    d="M7.32087 8.96929H7.11911L6.97306 9.10848L4.55572 11.4122L4.13039 9.37062L4.04678 8.96929H3.63684H1.80602C1.54519 8.96929 1.33374 8.75785 1.33374 8.49701V1.66198C1.33374 1.40115 1.54519 1.1897 1.80602 1.1897H11.0821C11.343 1.1897 11.5544 1.40115 11.5544 1.66198V8.49701C11.5544 8.75785 11.343 8.96929 11.0821 8.96929H7.32087Z"
    stroke="currentColor"
    stroke-width="1.00831"
  />
  <path
    d="M8.15479 12.4057H11.7708L14.2375 14.6002C14.3123 14.6667 14.4311 14.6274 14.4515 14.5294L14.894 12.4057H16.359C16.7906 12.4057 17.1404 12.0559 17.1404 11.6243V6.15483C17.1404 5.7233 16.7906 5.37347 16.359 5.37347H14.2134"
    stroke="currentColor"
    stroke-width="1.00831"
  />
</svg>
