<svg width="6" height="11" viewBox="0 0 6 11" fill="none" xmlns="http://www.w3.org/2000/svg">
<path d="M6 5.50305C6 5.24071 5.90323 5.01498 5.71537 4.81364L1.34345 0.244038C1.19545 0.0854133 1.01328 6.00464e-08 0.796964 5.74668e-08C0.352941 5.21719e-08 1.26663e-07 0.378259 1.21061e-07 0.848031C1.18296e-07 1.07987 0.0853891 1.2995 0.244782 1.47033L4.11575 5.49695L0.244782 9.52967C0.0910816 9.7005 1.295e-08 9.91403 1.01127e-08 10.152C4.51069e-09 10.6217 0.352941 11 0.796964 11C1.01328 11 1.19545 10.9146 1.34915 10.756L5.71537 6.18636C5.90892 5.97282 6 5.75929 6 5.50305Z" fill="currentColor"/>
</svg>
