<svg width="810" height="218" viewBox="0 0 810 218" fill="none" xmlns="http://www.w3.org/2000/svg">
<path opacity="0.32" d="M659.78 139.993C642.157 133.739 654.844 148.6 489.371 -21.9628C365.975 -149.154 344.751 -295.845 341.943 -300.946C339.696 -305.026 324.133 -307.539 316.632 -308.286C312.275 -294.24 330.115 -166.226 400.646 -71.5071C376.806 -103.109 318.099 -175.124 248.531 -195.299C137.798 -227.411 123.963 -247.711 107.23 -308.286L101.956 -290.098C82.3257 -274.645 68.2909 -231.965 169.193 -184.873C295.32 -126.008 400.054 -58.538 440.829 58.438C522.272 292.086 622.511 153.188 709.287 179.21L659.78 139.993Z" fill="#111216"/>
</svg>