<svg width="595" height="333" viewBox="0 0 595 333" fill="none" xmlns="http://www.w3.org/2000/svg">
<path opacity="0.32" d="M49.9594 432.993C67.582 426.739 54.8948 441.6 220.368 271.037C343.764 143.846 364.988 -2.84482 367.796 -7.94551C370.043 -12.0261 385.606 -14.539 393.107 -15.2855C397.464 -1.23982 379.624 126.774 309.093 221.493C332.933 189.891 391.64 117.876 461.208 97.7015C571.942 65.5891 585.776 45.289 602.509 -15.2856L607.783 2.90194C627.413 18.3552 641.448 61.0347 540.546 108.127C414.419 166.992 309.685 234.462 268.91 351.438C187.467 585.086 87.2276 446.188 0.451798 472.21L49.9594 432.993Z" fill="white"/>
</svg>
