<svg width="573" height="218" viewBox="0 0 573 218" fill="none" xmlns="http://www.w3.org/2000/svg">
<path opacity="0.32" d="M100.867 96.0167C114.843 83.5934 95.7066 87.5427 324.92 24.8186C495.848 -21.9558 634.593 30.1823 640.416 30.1816C645.074 30.1811 654.78 17.7583 659.05 11.547C648.846 0.957556 528.095 -45.1391 411.105 -29.0209C450.286 -34.6688 541.684 -51.3755 592.903 -102.594C674.429 -184.121 698.885 -186.453 760.021 -171.904L746.63 -185.294C742.557 -209.943 711.934 -242.818 622.025 -177.128C509.639 -95.0149 400.029 -35.7933 277.889 -56.4756C33.9263 -97.7866 107.277 57.0043 42.6381 120.479L100.867 96.0167Z" fill="#111216"/>
</svg>
