<svg width="20" height="18" viewBox="0 0 20 18" fill="none" xmlns="http://www.w3.org/2000/svg">
<path fill-rule="evenodd" clip-rule="evenodd" d="M10.3537 0L10.3536 0.000125481L13.75 3.50419L13.7504 3.50382V8.39041H8.82723C8.15802 8.39041 7.5785 8.85814 7.43289 9.51579L5.66505 17.5H0.952379C0.426394 17.5 0 17.0707 0 16.5411V0.958904C0 0.429316 0.426395 0 0.95238 0H10.3537ZM2.08333 2.99087C1.68884 2.99087 1.36905 3.31285 1.36905 3.71004C1.36905 4.10723 1.68884 4.42922 2.08333 4.42922H9.72028C10.1148 4.42922 10.4346 4.10723 10.4346 3.71004C10.4346 3.31285 10.1148 2.99087 9.72028 2.99087H2.08333ZM1.36905 7.06621C1.36905 6.66901 1.68884 6.34703 2.08333 6.34703H6.34457C6.73905 6.34703 7.05885 6.66901 7.05885 7.06621C7.05885 7.4634 6.73905 7.78538 6.34456 7.78538H2.08333C1.68884 7.78538 1.36905 7.4634 1.36905 7.06621ZM10.2714 9.58904C9.39163 9.58904 8.6263 10.1957 8.41985 11.0568L7.25743 15.9055C7.06263 16.718 7.67412 17.5 8.50432 17.5C8.70957 17.5 8.90242 17.4011 9.0231 17.2339L10.5665 15.0961C10.8353 14.7237 11.2648 14.5034 11.722 14.5034H13.6318H15.3491C15.781 14.5034 16.1898 14.7002 16.461 15.0388L18.2428 17.2631C18.3628 17.4129 18.5437 17.5 18.7349 17.5C19.568 17.5 20.1734 16.7028 19.9551 15.8933L18.6365 11.0042C18.4111 10.1689 17.658 9.58904 16.7983 9.58904H10.2714ZM10.9058 13.4246C11.5605 13.4246 12.0912 12.888 12.0912 12.226C12.0912 11.564 11.5605 11.0274 10.9058 11.0274C10.251 11.0274 9.72028 11.564 9.72028 12.226C9.72028 12.888 10.251 13.4246 10.9058 13.4246ZM17.5437 11.5068C17.5437 11.904 17.2252 12.226 16.8324 12.226C16.4396 12.226 16.1211 11.904 16.1211 11.5068C16.1211 11.1097 16.4396 10.7877 16.8324 10.7877C17.2252 10.7877 17.5437 11.1097 17.5437 11.5068ZM15.4099 13.6644C15.8028 13.6644 16.1212 13.3424 16.1212 12.9452C16.1212 12.548 15.8028 12.226 15.4099 12.226C15.0171 12.226 14.6987 12.548 14.6987 12.9452C14.6987 13.3424 15.0171 13.6644 15.4099 13.6644Z" fill="white"/>
</svg>
