<svg width="34" height="25" viewBox="0 0 34 25" fill="none" xmlns="http://www.w3.org/2000/svg">
<path fill-rule="evenodd" clip-rule="evenodd" d="M25.0914 24.453C25.0914 24.453 24.0429 23.2004 23.1692 22.0948C26.9826 21.0185 28.4377 18.6309 28.4377 18.6309C27.247 19.4164 26.1089 19.97 25.0914 20.3474C23.6347 20.9597 22.2383 21.368 20.8698 21.5999C18.0755 22.1257 15.5147 21.9788 13.3312 21.569C11.8699 21.2837 10.4377 20.8655 9.05244 20.3195C8.32235 20.0387 7.61244 19.7081 6.92773 19.3298C6.83959 19.2711 6.75299 19.2417 6.66485 19.1845C6.60763 19.1536 6.57825 19.1257 6.54887 19.0963C6.0231 18.8072 5.73393 18.6015 5.73393 18.6015C5.73393 18.6015 7.13185 20.9319 10.8277 22.0375C9.95397 23.1447 8.87925 24.4545 8.87925 24.4545C2.44635 24.2504 0 20.0319 0 20.0319C0 10.6516 4.19066 3.05587 4.19066 3.05587C8.38132 -0.0878945 12.3709 0.000248504 12.3709 0.000248504L12.6617 0.35282C7.42257 1.86517 5.00714 4.16462 5.00714 4.16462C5.00714 4.16462 5.64734 3.81514 6.72361 3.3203C9.838 1.95022 12.3122 1.5729 13.3312 1.48476C13.506 1.45383 13.6513 1.426 13.8261 1.426C15.7765 1.17223 17.7504 1.15303 19.7054 1.36878C22.4734 1.68888 25.4424 2.50382 28.4671 4.16307C28.4671 4.16307 26.1692 1.9796 21.2208 0.467252L21.6291 0.000248504C21.6291 0.000248504 25.6156 -0.0878945 29.8093 3.05587C29.8093 3.05587 34 10.6516 34 20.0257C34 20.0257 31.5258 24.2473 25.0929 24.4483L25.0914 24.453Z" fill="#768AD4"/>
<path fill-rule="evenodd" clip-rule="evenodd" d="M10.8042 10.4725C9.20411 10.4725 7.94104 11.8743 7.94104 13.5892C7.94104 15.3011 9.23244 16.7059 10.8042 16.7059C12.4043 16.7059 13.6674 15.3011 13.6674 13.5892C13.6972 11.8743 12.4043 10.4725 10.8042 10.4725ZM21.0489 10.4725C19.4488 10.4725 18.1858 11.8743 18.1858 13.5892C18.1858 15.3011 19.4772 16.7059 21.0489 16.7059C22.649 16.7059 23.9121 15.3011 23.9121 13.5892C23.9121 11.8743 22.649 10.4725 21.0489 10.4725Z" fill="#202225"/>
</svg>
