<svg width="48" height="48" viewBox="0 0 48 48" fill="none" xmlns="http://www.w3.org/2000/svg">
   <circle cx="24" cy="24" r="24" fill="var(--primaryColor, #B82F36)" />
   <path fill-rule="evenodd" clip-rule="evenodd"
      d="M16.4525 14C15.127 14 14.0525 15.0745 14.0525 16.4V30.2C14.0525 31.5255 15.127 32.6 16.4525 32.6H27.3478C27.8777 32.6 28.4011 32.717 28.8806 32.9427L33.2525 35V16.4C33.2525 15.0745 32.178 14 30.8525 14H16.4525ZM29.8973 27.5778C30.1058 27.4426 30.1653 27.164 30.0301 26.9554C29.8949 26.7469 29.6162 26.6874 29.4077 26.8226C24.5846 29.9494 19.7239 28.1247 17.9137 26.8338C17.7114 26.6895 17.4304 26.7366 17.2861 26.939C17.1418 27.1413 17.1888 27.4223 17.3912 27.5666C19.3905 28.9924 24.6632 30.971 29.8973 27.5778Z"
      fill="var(--accentColor, white)" />
</svg>
