<svg width="65" height="59" viewBox="0 0 65 59" fill="none" xmlns="http://www.w3.org/2000/svg">
<path fill-rule="evenodd" clip-rule="evenodd" d="M33.9249 0.537063C33.6016 0.338543 33.2757 0.138399 32.9286 1.96793e-05C32.6067 -0.00161115 32.2873 0.198853 31.9932 0.383398C31.8957 0.444572 31.801 0.503997 31.7099 0.553732C27.9476 2.79258 24.1837 5.02871 20.4197 7.26484C16.6562 9.50075 12.8926 11.7367 9.13069 13.9753C8.80383 14.1707 8.54191 14.4009 8.53325 14.8134C8.52335 15.8867 8.52477 16.9614 8.52618 18.0363C8.52724 18.8425 8.5283 19.6489 8.52459 20.4548C8.52459 20.8022 8.63499 21.0867 8.94886 21.2647C10.1279 21.9865 11.3202 22.6909 12.5124 23.3953C13.6337 24.0578 14.7548 24.7202 15.8648 25.3969C15.9092 25.4185 15.9581 25.4486 16.0098 25.4804C16.1978 25.596 16.4214 25.7335 16.5878 25.5598C16.6721 25.3273 16.6579 25.0509 16.6441 24.7811C16.6366 24.6351 16.6293 24.491 16.6376 24.3568C16.6438 23.7526 16.64 23.1476 16.6361 22.5424C16.6292 21.4663 16.6224 20.3899 16.6722 19.317C17.0077 19.3606 17.2926 19.5417 17.579 19.7237C17.6771 19.786 17.7753 19.8484 17.8758 19.9054C18.6627 20.373 19.4493 20.8404 20.2358 21.3077C24.2524 23.6941 28.2646 26.078 32.2814 28.4695C32.6017 28.6649 32.8853 28.754 33.2338 28.5542C37.9873 25.7292 42.7409 22.9041 47.4922 20.0813C47.6345 20.0001 47.7693 19.9149 47.9022 19.8309C48.2385 19.6183 48.563 19.4132 48.9663 19.2996C49.0561 19.794 49.0473 20.2722 49.0384 20.7612C49.035 20.9444 49.0317 21.1292 49.0334 21.3168C49.0373 22.6226 49.0365 23.9267 49.0358 25.2307C49.0352 26.0996 49.0347 26.9684 49.0356 27.8376C49.0248 28.3414 49.3408 28.5455 49.7304 28.7757C50.9034 29.4679 52.0724 30.1657 53.2409 30.8631C54.5136 31.6227 55.7857 32.3821 57.062 33.1337C57.4755 33.3769 57.8261 33.214 58.1941 32.9882C59.204 32.38 60.2207 31.7758 61.2372 31.1718C62.4451 30.454 63.6527 29.7364 64.8482 29.0124C65.1896 28.784 64.8791 28.5834 64.659 28.4412C64.6404 28.4292 64.6226 28.4177 64.6058 28.4065C63.5886 27.8033 62.5718 27.1991 61.5549 26.5949C60.3061 25.8529 59.057 25.1107 57.8067 24.3699C57.4668 24.1614 57.1205 23.9464 57.1313 23.4948C57.127 20.5981 57.1313 17.6927 57.1356 14.7961C57.1616 14.3965 56.8066 14.1468 56.5079 13.9601C52.8129 11.7659 49.1185 9.5695 45.424 7.37313C41.7295 5.17672 38.035 2.98031 34.3399 0.786073C34.2011 0.70668 34.0632 0.62202 33.9249 0.537063ZM11.6616 28.0701C10.4307 27.3361 9.20039 26.6024 7.97432 25.8756C7.6781 25.6888 7.38619 25.7106 7.09429 25.893C4.87151 27.2176 2.65739 28.5336 0.434609 29.8539C0.227035 29.9559 0.0821649 30.1145 0 30.3316C1.08948 30.9862 2.19654 31.6441 3.30553 32.3032C4.71663 33.1419 6.13086 33.9824 7.51593 34.8202C7.88351 35.0612 7.92027 35.3674 7.92027 35.7822C7.91378 37.1578 7.91432 38.534 7.91486 39.9105C7.9154 41.287 7.91594 42.6638 7.90945 44.0406C7.88783 44.4705 8.04351 44.7615 8.41542 44.9787C9.4022 45.5663 10.3889 46.154 11.3755 46.7416C15.0046 48.9031 18.6332 51.0642 22.2645 53.224C22.3609 53.2775 22.4579 53.3391 22.5561 53.4015C22.7972 53.5548 23.0459 53.7129 23.3132 53.7669C23.3932 53.6844 23.4711 53.5997 23.5489 53.5128C23.5143 53.6388 23.4797 53.7626 23.4451 53.8842C24.9855 54.8536 26.5567 55.7826 28.1275 56.7113C29.2555 57.3783 30.3833 58.0451 31.4994 58.7267C31.8584 58.9417 32.1935 59.1284 32.6 58.8852C34.5179 57.744 36.436 56.6029 38.3542 55.4618C43.9403 52.1386 49.527 48.8151 55.1089 45.4868C55.2238 45.4161 55.3389 45.3515 55.4523 45.2879C55.8403 45.0701 56.2077 44.864 56.4754 44.464C56.4549 43.2633 56.4587 42.0612 56.4625 40.8593C56.4651 40.033 56.4677 39.2069 56.4624 38.3815C56.4862 38.071 56.1511 37.8191 55.9197 37.6714C54.6423 36.9005 53.3623 36.1404 52.0826 35.3804C51.0012 34.7383 49.92 34.0962 48.8406 33.4478C48.6416 33.324 48.4946 33.3392 48.3995 33.4955C48.3634 34.5311 48.3708 35.573 48.3782 36.6148C48.385 37.5719 48.3918 38.5289 48.3649 39.4803C48.3301 39.8695 48.0928 40.0147 47.8214 40.1807C47.7551 40.2212 47.6868 40.263 47.6189 40.3098C45.6188 41.489 43.6231 42.679 41.6295 43.869C41.5026 43.9379 41.3856 44.0156 41.2711 44.0917C40.974 44.2891 40.6943 44.475 40.3041 44.464C40.2491 42.5862 40.2565 40.7034 40.2638 38.8218C40.2683 37.668 40.2728 36.5146 40.263 35.3631C40.1616 35.1215 39.8904 35.2727 39.7196 35.3678C39.7045 35.3762 39.6903 35.3841 39.677 35.3913C38.5247 36.0818 37.3713 36.769 36.2179 37.4562C35.0642 38.1436 33.9105 38.8309 32.7579 39.5216C32.4162 39.7279 32.1092 39.7995 31.7438 39.5824C30.5997 38.9158 29.462 38.2347 28.3241 37.5534C27.0598 36.7965 25.7953 36.0394 24.5219 35.3023C24.3965 35.198 24.2581 35.2176 24.1068 35.3609C24.0793 36.692 24.0871 38.0256 24.0949 39.3591C24.1049 41.0691 24.1149 42.7791 24.0505 44.4836C23.6586 44.4468 23.3747 44.2626 23.0725 44.0666C22.9646 43.9966 22.8543 43.925 22.7359 43.8581C22.1052 43.4835 21.4748 43.1082 20.8443 42.7328C19.4796 41.9203 18.1146 41.1077 16.7465 40.3012C16.6951 40.2654 16.6394 40.2302 16.5825 40.1942C16.311 40.0228 16.0118 39.8339 16.0243 39.4803C16.0027 36.729 16.0113 33.9689 16.02 31.2154C16.0373 30.7789 15.7951 30.5184 15.4362 30.3164C14.18 29.572 12.9205 28.8208 11.6616 28.0701Z" fill="currentColor"/>
</svg>
