<svg width="62" height="12" viewBox="0 0 62 12" fill="none" xmlns="http://www.w3.org/2000/svg">
<g opacity="0.98">
<path d="M12.9754 11.3631H20.2986V9.69217H14.9073V6.7362H19.3185V5.0959H14.9073V2.30776H20.2986V0.636841H12.9754V11.3631Z" fill="white"/>
<path d="M22.1203 2.32247H25.4474V11.3631H27.3793V2.32247H30.7052V0.636841H22.1203V2.32247Z" fill="white"/>
<path d="M35.1323 0.638184L30.8178 11.3632H32.6872L33.7125 8.88133H38.4252L39.4652 11.3632H41.4865L37.0348 0.638184H35.1323ZM34.3667 7.3182L36.0756 2.63006L37.7906 7.3182H34.3667Z" fill="white"/>
<path d="M59.3167 0.636841L56.1402 5.86277L52.9956 0.636841H50.8628L55.0818 7.60964V11.3631H57.0761V7.57902L61.2804 0.636841H59.3167Z" fill="white"/>
<path d="M43.2591 11.3631H45.1909V8.94981V7.25683H48.5916V5.57121H45.1909V2.30776H49.5716V0.636841H43.2591V11.3631Z" fill="white"/>
<path d="M2.67029e-05 11.3633H1.84368V7.85238L2.67029e-05 5.60938V11.3633Z" fill="white"/>
<path d="M5.23328 6.90035L7.62939e-06 0.638062V1.85328V3.33555L2.918 6.87095L5.20266 9.53537L8.56288 5.52588L8.57758 11.3631H10.4053L10.3906 0.638062L5.23328 6.90035Z" fill="white"/>
</g>
</svg>
