<svg width="94" height="17" viewBox="0 0 94 17" fill="none" xmlns="http://www.w3.org/2000/svg">
<path fill-rule="evenodd" clip-rule="evenodd" d="M0.647461 16.8635L3.50747 0H7.84218L11.2161 8.99086L14.5677 0H18.9024L21.7624 16.8635H17.4053L15.953 7.1569L11.9758 16.8635H10.233L6.45686 7.1569L5.00451 16.8635H0.647461ZM34.1185 3.71277H28.9124V6.5308H33.828V10.2434H28.9124V13.1509H34.1185V16.8636H24.533V0.00012207H34.1185V3.71277ZM43.6591 3.71277V16.8636H39.2797V3.71277H35.6824V0.00012207H47.2565V3.71277H43.6591ZM58.3615 10.6017L56.3952 4.98798L54.4289 10.6017H58.3615ZM59.5235 13.9337H53.2672L52.2617 16.8636H47.5919L54.0045 0.00012207H58.7861L65.1988 16.8636H60.5289L59.5235 13.9337ZM76.7729 3.71277H71.4997V6.5308H76.3037V10.2434H71.4997V16.8636H67.1203V0.00012207H76.7729V3.71277ZM83.4539 8.76733L77.3094 0.00012207H82.5378L85.666 4.60738L88.7718 0.00012207H94.0002L87.8333 8.76733V16.8636H83.4539V8.76733Z" fill="white"/>
</svg>
