<svg width="16" height="17" viewBox="0 0 16 17" fill="none" xmlns="http://www.w3.org/2000/svg">
<path fill-rule="evenodd" clip-rule="evenodd" d="M12 7C12 9.76142 9.76142 12 7 12C4.23858 12 2 9.76142 2 7C2 4.23858 4.23858 2 7 2C9.76142 2 12 4.23858 12 7ZM0 7C0 10.866 3.13401 14 7 14C8.31399 14 9.54341 13.638 10.594 13.0082L14.2929 16.7071C14.6834 17.0976 15.3166 17.0976 15.7071 16.7071C16.0976 16.3166 16.0976 15.6834 15.7071 15.2929L12.1525 11.7383C13.2996 10.4917 14 8.82763 14 7C14 3.13401 10.866 0 7 0C3.13401 0 0 3.13401 0 7Z" fill="#F14343"/>
</svg>
