<svg width="14" height="12" viewBox="0 0 14 12" fill="none" xmlns="http://www.w3.org/2000/svg">
<path fill-rule="evenodd" clip-rule="evenodd" d="M6.7978 3.19219L6.82815 3.71122L6.32236 3.64767C4.48129 3.40404 2.87288 2.57782 1.50725 1.1902L0.839609 0.501686L0.667641 1.01013C0.303473 2.14353 0.536136 3.34048 1.29482 4.14552C1.69945 4.5904 1.60841 4.65396 0.91042 4.38914C0.667641 4.3044 0.45521 4.24085 0.434978 4.27263C0.364168 4.34677 0.606946 5.31069 0.799146 5.69202C1.06216 6.22165 1.59829 6.74068 2.18501 7.04787L2.68068 7.2915L2.09397 7.30209C1.52748 7.30209 1.50725 7.31268 1.56794 7.53512C1.77026 8.22364 2.56941 8.95452 3.45959 9.2723L4.08677 9.49474L3.54052 9.8337C2.73126 10.321 1.78038 10.5964 0.829493 10.6175C0.374283 10.6281 0 10.6705 0 10.7023C0 10.8082 1.23412 11.4014 1.95234 11.6344C4.107 12.3229 6.66629 12.0264 8.58829 10.8506C9.95392 10.0138 11.3195 8.35075 11.9568 6.74068C12.3008 5.88269 12.6447 4.315 12.6447 3.56293C12.6447 3.07567 12.6751 3.01211 13.2415 2.42953C13.5754 2.09056 13.889 1.71983 13.9496 1.6139C14.0508 1.41264 14.0407 1.41264 13.5248 1.59272C12.6649 1.91049 12.5436 1.86812 12.9684 1.39146C13.282 1.0525 13.6563 0.438131 13.6563 0.258058C13.6563 0.22628 13.5046 0.279243 13.3326 0.374575C13.1505 0.480501 12.7459 0.639388 12.4424 0.734721L11.8961 0.914795L11.4005 0.565241C11.1273 0.374575 10.7429 0.162725 10.5406 0.0991699C10.0247 -0.0491255 9.2357 -0.0279405 8.77037 0.14154C7.5059 0.618204 6.70676 1.84694 6.7978 3.19219Z" fill="white"/>
</svg>
