<svg width="17" height="12" viewBox="0 0 17 12" fill="none" xmlns="http://www.w3.org/2000/svg">
<path fill-rule="evenodd" clip-rule="evenodd" d="M11.3406 10.8146C11.7682 11.3558 12.2814 11.9689 12.2814 11.9689L12.2821 11.9666C15.4308 11.8682 16.6418 9.8019 16.6418 9.8019C16.6418 5.21361 14.5907 1.49575 14.5907 1.49575C12.538 -0.0430214 10.5867 0.000121634 10.5867 0.000121634L10.3869 0.228704C12.8089 0.968947 13.9337 2.03768 13.9337 2.03768C12.4532 1.22553 10.9999 0.82665 9.64511 0.669973C8.68819 0.564367 7.72207 0.573769 6.76739 0.697978C6.68704 0.697978 6.61938 0.710004 6.54056 0.724012C6.53549 0.724914 6.53036 0.725824 6.52519 0.72674C6.02639 0.769883 4.81536 0.954566 3.29098 1.62517C2.76418 1.86738 2.45082 2.03844 2.45082 2.03844C2.45082 2.03844 3.63309 0.912936 6.19745 0.172694L6.05516 0.000121634C6.05516 0.000121634 4.10237 -0.0430214 2.05118 1.49575C2.05118 1.49575 0 5.21361 0 9.80493C0 9.80493 1.19741 11.8697 4.34609 11.9697C4.34609 11.9697 4.87213 11.3286 5.29978 10.7866C3.4908 10.2454 2.80657 9.1048 2.80657 9.1048C2.80657 9.1048 2.9481 9.20547 3.20545 9.34701C3.21983 9.36139 3.23421 9.37502 3.26222 9.39015C3.28319 9.40377 3.30398 9.41416 3.32477 9.42455C3.34674 9.43554 3.36872 9.44652 3.39089 9.4613C3.72603 9.64643 4.07351 9.80828 4.43086 9.94571C5.10888 10.213 5.8099 10.4177 6.52519 10.5573C7.59392 10.7579 8.84734 10.8298 10.215 10.5724C10.8849 10.4589 11.5684 10.2591 12.2814 9.95934C12.7794 9.77466 13.3365 9.50369 13.9193 9.11919C13.9193 9.11919 13.2071 10.2878 11.3406 10.8146ZM4.20302 6.89692C4.20302 6.02649 4.84411 5.31501 5.65626 5.31501C6.46841 5.31501 7.12464 6.02649 7.1095 6.89692C7.1095 7.76584 6.46841 8.47883 5.65626 8.47883C4.8585 8.47883 4.20302 7.76584 4.20302 6.89692ZM9.40289 6.89692C9.40289 6.02649 10.044 5.31501 10.8561 5.31501C11.6683 5.31501 12.3094 6.02649 12.3094 6.89692C12.3094 7.76584 11.6683 8.47883 10.8561 8.47883C10.0584 8.47883 9.40289 7.76584 9.40289 6.89692Z" fill="white"/>
</svg>
