<svg width="16" height="16" viewBox="0 0 16 16" fill="none" xmlns="http://www.w3.org/2000/svg">
<path d="M11.5 16H4.5C3.30653 16 2.16193 15.5259 1.31802 14.682C0.474106 13.8381 0 12.6935 0 11.5L0 4.5C0 3.30653 0.474106 2.16193 1.31802 1.31802C2.16193 0.474106 3.30653 0 4.5 0L11.5 0C12.6935 0 13.8381 0.474106 14.682 1.31802C15.5259 2.16193 16 3.30653 16 4.5V11.5C16 12.6935 15.5259 13.8381 14.682 14.682C13.8381 15.5259 12.6935 16 11.5 16ZM4.5 1C3.57174 1 2.6815 1.36875 2.02513 2.02513C1.36875 2.6815 1 3.57174 1 4.5V11.5C1 12.4283 1.36875 13.3185 2.02513 13.9749C2.6815 14.6313 3.57174 15 4.5 15H11.5C12.4283 15 13.3185 14.6313 13.9749 13.9749C14.6313 13.3185 15 12.4283 15 11.5V4.5C15 3.57174 14.6313 2.6815 13.9749 2.02513C13.3185 1.36875 12.4283 1 11.5 1H4.5Z" fill="white"/>
<path d="M8 12C7.20888 12 6.43552 11.7654 5.77772 11.3259C5.11992 10.8864 4.60723 10.2616 4.30448 9.53074C4.00173 8.79983 3.92252 7.99556 4.07686 7.21964C4.2312 6.44372 4.61216 5.73098 5.17157 5.17157C5.73098 4.61216 6.44372 4.2312 7.21964 4.07686C7.99556 3.92252 8.79983 4.00173 9.53074 4.30448C10.2616 4.60723 10.8864 5.11992 11.3259 5.77772C11.7654 6.43552 12 7.20888 12 8C12 9.06087 11.5786 10.0783 10.8284 10.8284C10.0783 11.5786 9.06087 12 8 12ZM8 5C7.40666 5 6.82664 5.17595 6.33329 5.50559C5.83994 5.83524 5.45543 6.30377 5.22836 6.85195C5.0013 7.40013 4.94189 8.00333 5.05765 8.58527C5.1734 9.16722 5.45912 9.70177 5.87868 10.1213C6.29824 10.5409 6.83279 10.8266 7.41473 10.9424C7.99667 11.0581 8.59987 10.9987 9.14805 10.7716C9.69623 10.5446 10.1648 10.1601 10.4944 9.66671C10.8241 9.17337 11 8.59335 11 8C11 7.20435 10.6839 6.44129 10.1213 5.87868C9.55871 5.31607 8.79565 5 8 5Z" fill="white"/>
<path d="M12.5 4.5C12.3022 4.5 12.1089 4.44135 11.9444 4.33147C11.78 4.22159 11.6518 4.06541 11.5761 3.88268C11.5004 3.69996 11.4806 3.49889 11.5192 3.30491C11.5578 3.11093 11.653 2.93275 11.7929 2.79289C11.9327 2.65304 12.1109 2.5578 12.3049 2.51922C12.4989 2.48063 12.7 2.50043 12.8827 2.57612C13.0654 2.65181 13.2216 2.77998 13.3315 2.94443C13.4414 3.10888 13.5 3.30222 13.5 3.5C13.5 3.76522 13.3946 4.01957 13.2071 4.20711C13.0196 4.39464 12.7652 4.5 12.5 4.5Z" fill="white"/>
</svg>
