<svg width="14" height="14" viewBox="0 0 14 14" fill="none" xmlns="http://www.w3.org/2000/svg">
<path d="M4.39444 8.5089L8.50889 4.3945C8.54504 4.35805 8.58805 4.32912 8.63544 4.30938C8.68283 4.28963 8.73366 4.27947 8.785 4.27947C8.83634 4.27947 8.88717 4.28963 8.93456 4.30938C8.98195 4.32912 9.02496 4.35805 9.06111 4.3945L9.60556 4.93894C9.64201 4.97509 9.67094 5.0181 9.69068 5.06549C9.71042 5.11288 9.72059 5.16371 9.72059 5.21505C9.72059 5.26638 9.71042 5.31721 9.69068 5.3646C9.67094 5.41199 9.64201 5.455 9.60556 5.49116L5.49111 9.60555C5.45496 9.642 5.41195 9.67093 5.36456 9.69068C5.31717 9.71042 5.26634 9.72058 5.215 9.72058C5.16366 9.72058 5.11283 9.71042 5.06544 9.69068C5.01805 9.67093 4.97504 9.642 4.93889 9.60555L4.39444 9.06111C4.35799 9.02496 4.32906 8.98195 4.30932 8.93456C4.28958 8.88717 4.27941 8.83634 4.27941 8.78501C4.27941 8.73367 4.28958 8.68284 4.30932 8.63545C4.32906 8.58806 4.35799 8.54505 4.39444 8.5089ZM14 3.62451V3.88895C14.0003 4.29948 13.9194 4.70601 13.7619 5.08511C13.6044 5.46421 13.3734 5.80839 13.0822 6.09781L10.8889 8.2989C10.6923 8.49364 10.4267 8.60288 10.15 8.60288C9.87327 8.60288 9.60773 8.49364 9.41111 8.2989L9.33333 8.21335C9.26208 8.14065 9.22217 8.04292 9.22217 7.94113C9.22217 7.83934 9.26208 7.7416 9.33333 7.66891L12.0089 4.99338C12.2944 4.6973 12.451 4.3002 12.4444 3.88895V3.62451C12.4446 3.41925 12.4041 3.21598 12.3254 3.02643C12.2466 2.83688 12.1311 2.66479 11.9856 2.52008L11.48 2.01453C11.3353 1.86895 11.1632 1.75346 10.9736 1.6747C10.7841 1.59595 10.5808 1.55548 10.3756 1.55564H10.1111C9.90585 1.55548 9.70258 1.59595 9.51302 1.6747C9.32347 1.75346 9.15138 1.86895 9.00667 2.01453L6.33111 4.66672C6.25842 4.73797 6.16068 4.77788 6.05889 4.77788C5.9571 4.77788 5.85936 4.73797 5.78667 4.66672L5.70111 4.58117C5.50637 4.38455 5.39713 4.11901 5.39713 3.84228C5.39713 3.56556 5.50637 3.30002 5.70111 3.1034L7.90222 0.894541C8.19356 0.607605 8.53861 0.380917 8.91763 0.227442C9.29665 0.073967 9.70221 -0.0032841 10.1111 0.00010699H10.3756C10.7842 -0.000214368 11.189 0.0799852 11.5666 0.236124C11.9443 0.392263 12.2875 0.621282 12.5767 0.910097L13.09 1.42342C13.3788 1.71256 13.6078 2.05577 13.764 2.43344C13.9201 2.8111 14.0003 3.21584 14 3.62451ZM7.66889 9.33333C7.74158 9.26208 7.83932 9.22217 7.94111 9.22217C8.0429 9.22217 8.14064 9.26208 8.21333 9.33333L8.29889 9.41889C8.49362 9.6155 8.60287 9.88104 8.60287 10.1578C8.60287 10.4345 8.49362 10.7 8.29889 10.8966L6.08222 13.1133C5.4964 13.6861 4.70823 14.0047 3.88889 13.9999H3.62444C3.21577 14.0003 2.81103 13.9201 2.43336 13.7639C2.05568 13.6078 1.71247 13.3788 1.42333 13.09L0.910001 12.5766C0.328606 11.9946 0.00141171 11.206 9.7678e-07 10.3833V10.1111C-0.00032432 9.70058 0.0806038 9.29405 0.238121 8.91494C0.395637 8.53584 0.626628 8.19166 0.917779 7.90224L3.11111 5.70115C3.30773 5.50642 3.57327 5.39717 3.85 5.39717C4.12673 5.39717 4.39227 5.50642 4.58889 5.70115L4.67445 5.78671C4.7457 5.8594 4.78561 5.95713 4.78561 6.05893C4.78561 6.16072 4.7457 6.25845 4.67445 6.33115L2.01445 9.00667C1.86887 9.15138 1.75337 9.32347 1.67462 9.51302C1.59586 9.70257 1.55539 9.90584 1.55556 10.1111V10.3755C1.55539 10.5808 1.59586 10.7841 1.67462 10.9736C1.75337 11.1632 1.86887 11.3353 2.01445 11.48L2.52 11.9855C2.66471 12.1311 2.8368 12.2466 3.02636 12.3254C3.21591 12.4041 3.41918 12.4446 3.62444 12.4444H3.88889C4.09546 12.4456 4.3002 12.4056 4.49116 12.3269C4.68212 12.2481 4.85548 12.132 5.00111 11.9855L7.66889 9.33333Z" fill="white"/>
</svg>
