<svg width="17" height="12" viewBox="0 0 17 12" fill="none" xmlns="http://www.w3.org/2000/svg">
<path fill-rule="evenodd" clip-rule="evenodd" d="M16.2785 1.15636C15.8174 0.314182 15.3222 0.159273 14.2979 0.100364C13.2736 0.0414546 10.7202 0 8.50053 0C6.28083 0 3.71898 0.0294546 2.70104 0.0992728C1.6831 0.169091 1.18264 0.317455 0.718295 1.15527C0.253953 1.99309 0 3.44618 0 6V6.00982C0 8.54945 0.24439 10.0091 0.719357 10.8415C1.19432 11.6738 1.68523 11.8364 2.70211 11.9073C3.71898 11.9782 6.28083 12 8.50053 12C10.7202 12 13.2821 11.964 14.2968 11.904C15.3116 11.844 15.8163 11.6804 16.2775 10.8382C16.7588 10.0058 17 8.54727 17 6.00655V6C17.0011 3.44618 16.7588 1.99745 16.2785 1.15636ZM6.3754 9.27273V2.72727L11.6882 6L6.3754 9.27273Z" fill="white"/>
</svg>
