<svg width="50" height="39" viewBox="0 0 50 39" fill="none" xmlns="http://www.w3.org/2000/svg">
<path d="M3.75032 20.2397C4.2571 16.7298 7.26502 14.125 10.8113 14.125H29.4372C32.9835 14.125 35.9915 16.7298 36.4982 20.2397L38.4812 33.9734C38.7282 35.6843 37.4011 37.2167 35.6725 37.2167C34.8422 37.2167 34.0536 36.8531 33.5144 36.2217L27.8776 29.6203C27.35 29.0025 26.5783 28.6467 25.7658 28.6467H20.1243H14.5489C13.6731 28.6467 12.8486 29.0598 12.3244 29.7614L7.74228 35.8942C7.12038 36.7265 6.14225 37.2167 5.10323 37.2167C3.09649 37.2167 1.55595 35.4377 1.84272 33.4516L3.75032 20.2397Z" stroke="white" stroke-width="2.25"/>
<path d="M41 16.5C42.6948 18.4847 42.2891 17.6696 43.1805 18.5835C43.7741 19.1921 44.5649 19.5816 45.415 19.5816V19.5816C47.1851 19.5816 48.5438 18.0125 48.2909 16.2606C48.0161 14.3576 47.7718 12.6657 47.4289 10.2908L46.8369 6.19059C46.4068 3.21115 43.8534 1 40.8431 1H27.1857C24.1754 1 21.6221 3.21115 21.1919 6.19059L20.5999 10.2908" stroke="#798694" stroke-width="1.6498"/>
</svg>
