<svg width="14" height="16" viewBox="0 0 14 16" fill="none" xmlns="http://www.w3.org/2000/svg">
<path d="M2.09971 0C2.03471 0 1.97099 0.0188053 1.9157 0.0543088C1.8604 0.0898123 1.81572 0.140611 1.78665 0.201013C1.75758 0.261415 1.74527 0.329034 1.75111 0.396293C1.75695 0.463552 1.7807 0.527793 1.8197 0.581818L2.79972 1.93891V14.0611L1.46969 15.4182C1.43069 15.4722 1.40694 15.5364 1.4011 15.6037C1.39527 15.671 1.40757 15.7386 1.43664 15.799C1.46571 15.8594 1.51039 15.9102 1.56569 15.9457C1.62098 15.9812 1.6847 16 1.7497 16H11.8999C12.0063 16 12.1068 15.9498 12.1733 15.8636L13.9233 14.0455C13.9643 13.9919 13.9899 13.9274 13.9972 13.8594C14.0045 13.7915 13.9933 13.7227 13.9648 13.6611C13.9362 13.5994 13.8916 13.5474 13.8359 13.5108C13.7803 13.4743 13.7158 13.4548 13.65 13.4545H6.29981V0.363636C6.29981 0.267194 6.26293 0.174702 6.19729 0.106507C6.13165 0.0383116 6.04263 0 5.9498 0H2.09971ZM6.99983 1.45455V2.18182C10.4737 2.18182 13.3 5.11818 13.3 8.72727C13.3 10.2342 12.8026 11.6196 11.9759 12.7273H12.8401C13.5972 11.5416 14.0007 10.1502 14 8.72727C14 4.71709 10.8597 1.45455 6.99983 1.45455ZM6.99983 2.90909V12.7273H11.0564C12.0105 11.6836 12.6 10.2771 12.6 8.72727C12.6 5.51927 10.0876 2.90909 6.99983 2.90909ZM2.09971 3.54182C0.890076 4.776 0.107107 6.46 0.0101545 8.33164C-0.00757797 8.67586 -0.00208107 9.02094 0.0266049 9.36436C0.175359 11.1389 0.942227 12.7316 2.09971 13.9127V12.8316C1.19333 11.6711 0.698972 10.2218 0.699671 8.72727C0.698972 7.23274 1.19333 5.78347 2.09971 4.62291V3.54182ZM2.09971 5.91673C1.64001 6.77644 1.39907 7.74381 1.39969 8.72727C1.39969 9.74618 1.65484 10.704 2.09971 11.5378V5.91636V5.91673Z" fill="white"/>
</svg>
