<svg width="17" height="17" viewBox="0 0 17 17" fill="none" xmlns="http://www.w3.org/2000/svg">
<circle cx="8.00464" cy="9" r="8" fill="#515E6C"/>
<path d="M7.9135 0.996468C6.13275 1.00788 4.37228 1.64268 2.98916 2.759L4.50041 4.5136C5.77587 3.50705 7.49443 3.09687 9.08838 3.41375C9.96436 3.58227 10.7979 3.96691 11.5012 4.5136L13.0124 2.759C11.5818 1.60458 9.7555 0.968865 7.9135 0.996468Z" fill="#FA9C1E"/>
<path d="M2.49719 3.19034C0.904804 4.68633 -0.0288637 6.86099 0.000680764 9.05458C0.00162493 11.3316 1.0403 13.5682 2.76523 15.0476C4.35968 16.4421 6.52819 17.1524 8.64526 16.9727C10.9393 16.8019 13.1167 15.5766 14.4628 13.715C15.773 11.9459 16.2863 9.61301 15.8514 7.44965C15.5317 5.79358 14.6634 4.2588 13.4286 3.11804L11.9174 4.87264C13.1351 6.02043 13.8 7.71468 13.6746 9.38611C13.6198 10.2142 13.3793 11.0315 12.9728 11.7588L9.89296 8.7839L8.33908 5.43443L8.33675 10.5068L11.4492 13.5187C10.0622 14.5963 8.15918 14.9537 6.47288 14.476C5.78625 14.2845 5.13606 13.9631 4.57097 13.5319L7.70456 10.5068C7.6991 8.85764 7.7237 7.07743 7.70455 5.42898L6.14835 8.7839L3.04209 11.7835C2.09444 10.1292 2.07177 7.99051 2.9839 6.31776C3.26904 5.78188 3.64644 5.29283 4.08427 4.87264L2.57302 3.11804C2.54774 3.14214 2.52247 3.16624 2.49719 3.19034Z" fill="white"/>
</svg>
