<svg width="22" height="18" viewBox="0 0 22 18" fill="none" xmlns="http://www.w3.org/2000/svg">
<path opacity="0.88" fill-rule="evenodd" clip-rule="evenodd" d="M10.2984 4.78828L10.3438 5.56683L9.58618 5.4715C6.82828 5.10606 4.4189 3.86673 2.3732 1.7853L1.37308 0.752529L1.11548 1.51519C0.569956 3.21529 0.918482 5.01073 2.05498 6.21827C2.66111 6.8856 2.52473 6.98093 1.47916 6.58371C1.11548 6.4566 0.797256 6.36127 0.766949 6.40894C0.660876 6.52016 1.02456 7.96604 1.31247 8.53804C1.70645 9.33248 2.50958 10.111 3.38847 10.5718L4.13099 10.9372L3.25209 10.9531C2.40351 10.9531 2.3732 10.969 2.46412 11.3027C2.76719 12.3355 3.9643 13.4318 5.29779 13.9084L6.2373 14.2421L5.41902 14.7506C4.20675 15.4814 2.78234 15.8945 1.35793 15.9263C0.676029 15.9422 0.115356 16.0058 0.115356 16.0534C0.115356 16.2123 1.96406 17.1021 3.03995 17.4516C6.2676 18.4844 10.1014 18.0395 12.9805 16.2759C15.0262 15.0207 17.0719 12.5261 18.0266 10.111C18.5418 8.82403 19.057 6.47249 19.057 5.34439C19.057 4.61351 19.1025 4.51817 19.951 3.64429C20.4511 3.13585 20.9209 2.57974 21.0118 2.42085C21.1633 2.11896 21.1482 2.11897 20.3753 2.38907C19.0873 2.86574 18.9055 2.80218 19.5419 2.08719C20.0117 1.57875 20.5723 0.657196 20.5723 0.387087C20.5723 0.339421 20.345 0.418864 20.0874 0.561863C19.8147 0.720751 19.2085 0.959082 18.7539 1.10208L17.9357 1.37219L17.1931 0.847861C16.784 0.561863 16.2082 0.244088 15.9051 0.148755C15.1323 -0.0736882 13.9503 -0.0419107 13.2533 0.21231C11.3591 0.927306 10.162 2.7704 10.2984 4.78828Z" fill="#2A96EB"/>
</svg>
