<svg width="13" height="13" viewBox="0 0 13 13" fill="none" xmlns="http://www.w3.org/2000/svg">
  <path
    fill-rule="evenodd"
    clip-rule="evenodd"
    d="M2.27189 3.70463L6.65676 1.68084L11.0416 3.70463L6.65676 5.72841L2.27189 3.70463ZM6.44875 0.80063C6.58074 0.739715 6.73278 0.739715 6.86477 0.800629L12.1803 3.25395C12.3478 3.33128 12.4424 3.47868 12.4639 3.63508C12.5478 3.71572 12.6 3.82908 12.6 3.95463V9.6806C12.6 10.049 12.3846 10.3835 12.0492 10.5359L6.8402 12.9037L6.65681 12.987L6.47342 12.9037L1.26438 10.5359C0.92897 10.3835 0.713623 10.049 0.713623 9.6806V3.95463C0.713623 3.82913 0.765787 3.71581 0.849615 3.63518C0.87111 3.47874 0.965648 3.33129 1.13323 3.25395L6.44875 0.80063ZM1.59999 4.37073V9.6806C1.59999 9.70145 1.61218 9.72038 1.63116 9.72902L6.21362 11.812V8.19466C6.21362 7.9499 6.41204 7.75148 6.65681 7.75148C6.90157 7.75148 7.09999 7.9499 7.09999 8.19466V11.812L11.6824 9.72902C11.7014 9.72038 11.7136 9.70146 11.7136 9.6806V4.37069L6.86477 6.60863C6.73279 6.66954 6.58074 6.66954 6.44876 6.60863L1.59999 4.37073Z"
    fill="url(#pack--gradient)"
  />
  <defs>
    <linearGradient
      id="pack--gradient"
      x1="13.6821"
      y1="-1.43914"
      x2="-3.7639"
      y2="-1.48962"
      gradientUnits="userSpaceOnUse"
    >
      <stop stop-color="#7DC1F4" />
      <stop offset="1" stop-color="#BE3434" />
    </linearGradient>
  </defs>
</svg>
