<svg width="26" height="22" viewBox="0 0 26 22" fill="none" xmlns="http://www.w3.org/2000/svg">
<path d="M9.74177 12.893H9.49165L9.31058 13.0656L5.65915 16.5454C5.59887 16.6028 5.49893 16.5717 5.48195 16.4902L4.83619 13.3905L4.73254 12.893H4.22433H1.48239C1.01992 12.893 0.64502 12.5181 0.64502 12.0556V1.81906C0.64502 1.35659 1.01992 0.981689 1.48239 0.981689H15.3749C15.8373 0.981689 16.2122 1.35659 16.2122 1.81906V12.0556C16.2122 12.5181 15.8373 12.893 15.3749 12.893H9.74177Z" stroke="var(--primaryColor)" stroke-width="1.25" stroke-linecap="round"/>
<path d="M10.9909 17.9098H16.4064L20.1007 21.1964C20.2127 21.2961 20.3907 21.2373 20.4213 21.0904L21.0839 17.9098H23.278C23.9243 17.9098 24.4482 17.3859 24.4482 16.7396V8.54814C24.4482 7.90185 23.9243 7.37793 23.278 7.37793H20.0647" stroke="var(--primaryColor)" stroke-width="1.25" stroke-linecap="round"/>
</svg>
