<svg width="22" height="22" viewBox="0 0 22 22" fill="none" xmlns="http://www.w3.org/2000/svg">
<path d="M9.21333 3.64828C10.3853 3.33562 11.6147 3.33562 12.7867 3.64828L14.0157 1.44907C14.1531 1.20315 14.4665 1.11927 14.7084 1.26364L17.316 2.81991C17.5484 2.95859 17.6283 3.25697 17.4963 3.49318L16.2533 5.71724C17.1057 6.61433 17.7249 7.71988 18.0533 8.93103H20.5C20.7761 8.93103 21 9.15489 21 9.43103V12.569C21 12.8451 20.7761 13.069 20.5 13.069H18.0533C17.7249 14.2801 17.1057 15.3857 16.2533 16.2828L17.4963 18.5068C17.6283 18.743 17.5484 19.0414 17.316 19.1801L14.7084 20.7364C14.4665 20.8807 14.1531 20.7969 14.0157 20.5509L12.7867 18.3517C11.6147 18.6644 10.3853 18.6644 9.21333 18.3517L7.9843 20.5509C7.84686 20.7969 7.5335 20.8807 7.29159 20.7364L4.68397 19.1801C4.4516 19.0414 4.37173 18.743 4.50374 18.5068L5.74667 16.2828C4.89427 15.3857 4.27507 14.2801 3.94667 13.069H1.5C1.22386 13.069 1 12.8451 1 12.569V9.43103C1 9.15489 1.22386 8.93103 1.5 8.93103H3.94667C4.27507 7.71988 4.89427 6.61433 5.74667 5.71724L4.50374 3.49318C4.37173 3.25697 4.4516 2.95859 4.68397 2.81991L7.29159 1.26364C7.5335 1.11927 7.84686 1.20315 7.9843 1.44907L9.21333 3.64828Z" stroke="var(--primaryColor)" stroke-width="1.5" stroke-linecap="round" stroke-linejoin="round"/>
<path d="M11 13.75C12.5188 13.75 13.75 12.5188 13.75 11C13.75 9.48122 12.5188 8.25 11 8.25C9.48122 8.25 8.25 9.48122 8.25 11C8.25 12.5188 9.48122 13.75 11 13.75Z" stroke="var(--accentColor)" stroke-width="1.5" stroke-linecap="round" stroke-linejoin="round"/>
</svg>
