<svg width="20" height="22" viewBox="0 0 20 22" fill="none" xmlns="http://www.w3.org/2000/svg">
<path d="M15 5C15 4.21313 15 3.54783 15 2.99931C15 1.89474 14.1046 1 13 1H3C1.89543 1 1 1.89543 1 3V19C1 20.1046 1.89595 21 3.00052 21C6.66163 21 9.33838 21 12.9995 21C14.104 21 15 20.1055 15 19.0009C15 18.5781 15 18.0802 15 17.5" stroke="#798694" stroke-width="1.5" stroke-linecap="round"/>
<path fill-rule="evenodd" clip-rule="evenodd" d="M15.1667 8.33331L19.3334 11.6667L15.1667 15V12.604L11 12.604L11 10.729L15.1667 10.729V8.33331Z" fill="white"/>
</svg>
